<?xml version="1.0" encoding="UTF-8" standalone="no"?>
<!-- Generator: Adobe Illustrator 18.0.0, SVG Export Plug-In . SVG Version: 6.00 Build 0)  -->

<svg
   xmlns:dc="http://purl.org/dc/elements/1.1/"
   xmlns:cc="http://creativecommons.org/ns#"
   xmlns:rdf="http://www.w3.org/1999/02/22-rdf-syntax-ns#"
   xmlns:svg="http://www.w3.org/2000/svg"
   xmlns="http://www.w3.org/2000/svg"
   xmlns:sodipodi="http://sodipodi.sourceforge.net/DTD/sodipodi-0.dtd"
   xmlns:inkscape="http://www.inkscape.org/namespaces/inkscape"
   version="1.1"
   id="Capa_1"
   x="0px"
   y="0px"
   viewBox="0 0 19.40567 19.405512"
   xml:space="preserve"
   sodipodi:docname="start.svg"
   inkscape:version="0.92.4 (5da689c313, 2019-01-14)"
   width="19.40567"
   height="19.405512"><metadata
   id="metadata38"><rdf:RDF><cc:Work
       rdf:about=""><dc:format>image/svg+xml</dc:format><dc:type
         rdf:resource="http://purl.org/dc/dcmitype/StillImage" /><dc:title /></cc:Work></rdf:RDF></metadata><defs
   id="defs36" /><sodipodi:namedview
   pagecolor="#ffffff"
   bordercolor="#666666"
   borderopacity="1"
   objecttolerance="10"
   gridtolerance="10"
   guidetolerance="10"
   inkscape:pageopacity="0"
   inkscape:pageshadow="2"
   inkscape:window-width="1280"
   inkscape:window-height="978"
   id="namedview34"
   showgrid="false"
   inkscape:zoom="7.6607211"
   inkscape:cx="17.823274"
   inkscape:cy="5.0136937"
   inkscape:window-x="0"
   inkscape:window-y="0"
   inkscape:window-maximized="1"
   inkscape:current-layer="Capa_1" />
  <g
   id="start-here-kde"
   transform="matrix(0.03937008,0,0,0.03937008,0,-7.874016e-5)">    
<path
   id="XMLID_347_"
   d="M 246.452,0.002 C 110.342,0.002 0,110.343 0,246.453 c 0,136.109 110.342,246.449 246.452,246.449 136.11,0 246.452,-110.34 246.452,-246.449 0,-136.11 -110.341,-246.451 -246.452,-246.451 z m 197.159,246.451 c 0,44.22 -14.808,84.941 -39.487,117.866 L 271.097,231.265 V 51.002 C 368.2,63.195 443.611,146.108 443.611,246.453 Z M 221.809,441.905 c -37.143,-4.66 -71.114,-19.607 -98.889,-42.022 l 98.889,-98.885 z m 49.288,-140.923 98.9,98.9 c -27.788,22.415 -61.757,37.362 -98.9,42.022 z M 221.809,51.002 V 231.283 L 88.775,364.32 C 64.101,331.395 49.289,290.673 49.289,246.454 c 0,-100.346 75.415,-183.259 172.52,-195.452 z"
   style="fill:#729aac;fill-opacity:1"
   inkscape:connector-curvature="0" />
<g
   id="g3">
</g>
<g
   id="g5">
</g>
<g
   id="g7">
</g>
<g
   id="g9">
</g>
<g
   id="g11">
</g>
<g
   id="g13">
</g>
<g
   id="g15">
</g>
<g
   id="g17">
</g>
<g
   id="g19">
</g>
<g
   id="g21">
</g>
<g
   id="g23">
</g>
<g
   id="g25">
</g>
<g
   id="g27">
</g>
<g
   id="g29">
</g>
<g
   id="g31">
</g>
</g>
</svg>