<?xml version="1.0" encoding="UTF-8" standalone="no"?>
<!-- Generator: Adobe Illustrator 16.0.0, SVG Export Plug-In . SVG Version: 6.00 Build 0)  -->

<svg
   xmlns:dc="http://purl.org/dc/elements/1.1/"
   xmlns:cc="http://creativecommons.org/ns#"
   xmlns:rdf="http://www.w3.org/1999/02/22-rdf-syntax-ns#"
   xmlns:svg="http://www.w3.org/2000/svg"
   xmlns="http://www.w3.org/2000/svg"
   xmlns:sodipodi="http://sodipodi.sourceforge.net/DTD/sodipodi-0.dtd"
   xmlns:inkscape="http://www.inkscape.org/namespaces/inkscape"
   version="1.1"
   id="Capa_1"
   x="0px"
   y="0px"
   width="2.6038189"
   height="2.6037402"
   viewBox="0 0 2.6038189 2.6037402"
   xml:space="preserve"
   sodipodi:docname="start.svg"
   inkscape:version="0.92.4 (5da689c313, 2019-01-14)"><metadata
   id="metadata49"><rdf:RDF><cc:Work
       rdf:about=""><dc:format>image/svg+xml</dc:format><dc:type
         rdf:resource="http://purl.org/dc/dcmitype/StillImage" /><dc:title /></cc:Work></rdf:RDF></metadata><defs
   id="defs47" /><sodipodi:namedview
   pagecolor="#ffffff"
   bordercolor="#666666"
   borderopacity="1"
   objecttolerance="10"
   gridtolerance="10"
   guidetolerance="10"
   inkscape:pageopacity="0"
   inkscape:pageshadow="2"
   inkscape:window-width="1280"
   inkscape:window-height="978"
   id="namedview45"
   showgrid="false"
   inkscape:zoom="57.093608"
   inkscape:cx="-1.4975773"
   inkscape:cy="-0.088391019"
   inkscape:window-x="0"
   inkscape:window-y="0"
   inkscape:window-maximized="1"
   inkscape:current-layer="Capa_1" />
<g
   id="g12"
   transform="translate(5.1382643,3.5429868)">
	<g
   id="g10">
    <g
   id="start-here-kde"
   transform="matrix(0.03937008,0,0,0.03937008,-5.1382643,-3.5430262)">    
		<path
   d="M 33.068,66.136 C 14.834,66.136 0,51.302 0,33.069 0,14.835 14.834,0.001 33.068,0.001 c 18.233,0 33.069,14.834 33.069,33.068 0,18.233 -14.835,33.067 -33.069,33.067 z m 0,-62.135 C 17.04,4.001 4,17.041 4,33.069 c 0,16.028 13.04,29.067 29.068,29.067 16.028,0 29.069,-13.04 29.069,-29.067 0,-16.027 -13.041,-29.068 -29.069,-29.068 z"
   id="path2"
   inkscape:connector-curvature="0"
   style="fill:#a3b5bb;fill-opacity:1" />
		<g
   id="g8">
			<path
   d="m 55.036,11.1 c 12.133,12.133 12.133,31.803 0,43.937 C 42.902,67.17 23.232,67.169 11.1,55.036"
   id="path4"
   style="fill:#000000;fill-opacity:1"
   inkscape:connector-curvature="0" />
			<path
   d="m 33.068,66.121 c -8.469,0 -16.936,-3.224 -23.383,-9.67 l 2.828,-2.828 c 11.334,11.333 29.773,11.334 41.108,0.001 11.333,-11.334 11.333,-29.775 0,-41.109 l 2.828,-2.828 c 12.894,12.893 12.894,33.873 0,46.765 -6.444,6.445 -14.914,9.668 -23.381,9.669 z"
   id="path6"
   inkscape:connector-curvature="0"
   style="fill:#a3b5bb;fill-opacity:1" />
		</g>
	</g>
</g>
<g
   id="g14">
</g>
<g
   id="g16">
</g>
<g
   id="g18">
</g>
<g
   id="g20">
</g>
<g
   id="g22">
</g>
<g
   id="g24">
</g>
<g
   id="g26">
</g>
<g
   id="g28">
</g>
<g
   id="g30">
</g>
<g
   id="g32">
</g>
<g
   id="g34">
</g>
<g
   id="g36">
</g>
<g
   id="g38">
</g>
<g
   id="g40">
</g>
<g
   id="g42">
</g>
</g>
</svg>