<?xml version="1.0" encoding="UTF-8" standalone="no"?>
<!-- Created with Inkscape (http://www.inkscape.org/) -->

<svg
   xmlns:dc="http://purl.org/dc/elements/1.1/"
   xmlns:cc="http://creativecommons.org/ns#"
   xmlns:rdf="http://www.w3.org/1999/02/22-rdf-syntax-ns#"
   xmlns:svg="http://www.w3.org/2000/svg"
   xmlns="http://www.w3.org/2000/svg"
   xmlns:sodipodi="http://sodipodi.sourceforge.net/DTD/sodipodi-0.dtd"
   xmlns:inkscape="http://www.inkscape.org/namespaces/inkscape"
   width="3.6666667in"
   height="1.5625001in"
   viewBox="0 0 3.6666667 1.5625001"
   version="1.1"
   id="SVGRoot"
   inkscape:version="0.92.4 (5da689c313, 2019-01-14)"
   sodipodi:docname="busywidget.svg">
  <defs
     id="defs860" />
  <sodipodi:namedview
     id="base"
     pagecolor="#ffffff"
     bordercolor="#666666"
     borderopacity="1.0"
     inkscape:pageopacity="0.0"
     inkscape:pageshadow="2"
     inkscape:zoom="1.4142136"
     inkscape:cx="172.04926"
     inkscape:cy="36.074308"
     inkscape:document-units="in"
     inkscape:current-layer="layer1"
     showgrid="false"
     inkscape:window-width="1280"
     inkscape:window-height="978"
     inkscape:window-x="0"
     inkscape:window-y="0"
     inkscape:window-maximized="1" />
  <metadata
     id="metadata863">
    <rdf:RDF>
      <cc:Work
         rdf:about="">
        <dc:format>image/svg+xml</dc:format>
        <dc:type
           rdf:resource="http://purl.org/dc/dcmitype/StillImage" />
        <dc:title />
      </cc:Work>
    </rdf:RDF>
  </metadata>
  <g
     inkscape:label="Layer 1"
     inkscape:groupmode="layer"
     id="layer1"
     transform="translate(-3.9999999,-3.046131)">
    <rect
       style="fill:#1a1a1a;fill-opacity:1;fill-rule:nonzero;stroke:none;stroke-width:0.01041667"
       id="hint-rotation-angle"
       width="0.14583336"
       height="0.14583343"
       x="5.4166665"
       y="3.0461311" />
    <g
       transform="matrix(0.03937008,0,0,0.03937008,5.4375,-6.7717815)"
       id="busywidget">
      <rect
         y="249.37497"
         x="-0.5291667"
         height="35.983345"
         width="35.983334"
         id="rect4524"
         style="opacity:1;fill:#550000;fill-opacity:0;stroke:none;stroke-width:2.00739384;stroke-opacity:1" />
      <g
         id="g4570">
        <path
           id="path4533"
           d="m 17.4625,251.49165 a 15.875,15.875 0 0 0 -15.8749998,15.875 15.875,15.875 0 0 0 15.8749998,15.875 15.875,15.875 0 0 0 15.875,-15.875 15.875,15.875 0 0 0 -15.875,-15.875 z m 0,1.5875 A 14.2875,14.2875 0 0 1 31.75,267.36665 14.2875,14.2875 0 0 1 17.4625,281.65415 14.2875,14.2875 0 0 1 3.1750002,267.36665 14.2875,14.2875 0 0 1 17.4625,253.07915 Z"
           style="opacity:1;fill:#010102;fill-opacity:1;stroke:none;stroke-width:2.25473905;stroke-opacity:1"
           inkscape:connector-curvature="0" />
        <path
           style="opacity:1;fill:#6e94a6;fill-opacity:1;stroke:none;stroke-width:2.25473905;stroke-opacity:1"
           d="m 32.54375,266.5729 a 0.79374994,0.79374994 0 0 0 -0.79375,0.79375 14.2875,14.2875 0 0 1 -14.2875,14.2875 0.79374994,0.79374994 0 0 0 -0.79375,0.79375 0.79374994,0.79374994 0 0 0 0.79375,0.79375 15.875,15.875 0 0 0 15.875,-15.875 0.79374994,0.79374994 0 0 0 -0.79375,-0.79375 z"
           id="path4539"
           inkscape:connector-curvature="0" />
      </g>
    </g>
    <g
       id="22-22-busywidget"
       transform="matrix(0.03937008,0,0,0.03937008,7.1770832,-5.4384486)">
      <path
         inkscape:connector-curvature="0"
         style="opacity:1;fill:#010102;fill-opacity:1;stroke:none;stroke-width:2;stroke-opacity:1"
         d="m 2.3812503,230.86241 a 2.6458332,2.6458332 0 0 0 -2.64583327,2.64583 2.6458332,2.6458332 0 0 0 2.64583327,2.64584 2.6458332,2.6458332 0 0 0 2.6458333,-2.64584 2.6458332,2.6458332 0 0 0 -2.6458333,-2.64583 z m 0,0.53743 a 2.1166665,2.1166665 0 0 1 2.1166666,2.11667 2.1166665,2.1166665 0 0 1 -2.1166666,2.11667 2.1166665,2.1166665 0 0 1 -2.11666656,-2.11667 2.1166665,2.1166665 0 0 1 2.11666656,-2.11667 z"
         id="path4583" />
      <path
         id="path4591"
         transform="matrix(0.26458333,0,0,0.26458333,-0.52916659,230.59783)"
         d="m 20,9.96875 a 0.99999995,0.99999995 0 0 0 -1,1 H 18.998 A 7.9999994,7.9999994 0 0 1 19,11 7.9999994,7.9999994 0 0 1 11,19 v -0.03125 a 0.99999995,0.99999995 0 0 0 -1,1 0.99999995,0.99999995 0 0 0 1,1 9.9999995,9.9999995 0 0 0 10,-10 0.99999995,0.99999995 0 0 0 -1,-1 z"
         style="opacity:1;fill:#6e94a6;fill-opacity:1;stroke:none;stroke-width:7.55905533;stroke-opacity:1"
         inkscape:connector-curvature="0" />
      <rect
         y="230.58957"
         x="-0.52916664"
         height="5.8208332"
         width="5.8208332"
         id="rect4601"
         style="opacity:1;fill:#ff00ff;fill-opacity:0;stroke:none;stroke-width:2;stroke-opacity:1" />
    </g>
    <g
       id="16-16-busywidget"
       transform="matrix(0.03937008,0,0,0.03937008,7.4895833,-5.4384484)">
      <path
         inkscape:connector-curvature="0"
         style="opacity:1;fill:#010102;fill-opacity:1;stroke:none;stroke-width:1.99999988;stroke-opacity:1"
         d="m 2.3812499,231.65616 a 1.8520833,1.8520833 0 0 0 -1.85208332,1.85209 1.8520833,1.8520833 0 0 0 1.85208332,1.85208 1.8520833,1.8520833 0 0 0 1.8520833,-1.85208 1.8520833,1.8520833 0 0 0 -1.8520833,-1.85209 z m 0,0.26459 a 1.5875,1.5875 0 0 1 1.5875,1.5875 1.5875,1.5875 0 0 1 -1.5875,1.5875 1.5875,1.5875 0 0 1 -1.58750002,-1.5875 1.5875,1.5875 0 0 1 1.58750002,-1.5875 z"
         id="path4613" />
      <path
         id="path4619"
         transform="matrix(0.26458333,0,0,0.26458333,0.26458321,231.39158)"
         d="M 14.5,7.46875 A 0.49999997,0.49999997 0 0 0 14.001953,7.9375 h -0.0039 A 5.9999996,5.9999996 0 0 1 14,7.9667969 0.49999997,0.49999997 0 0 0 14,7.96875 5.9999996,5.9999996 0 0 1 8,13.966797 v 0.002 a 0.49999997,0.49999997 0 0 0 -0.5,0.5 0.49999997,0.49999997 0 0 0 0.5,0.5 v -0.002 A 6.9999998,6.9999998 0 0 0 15,7.96875 0.49999997,0.49999997 0 0 0 15,7.9648438 6.9999998,6.9999998 0 0 0 14.998047,7.9375 0.49999997,0.49999997 0 0 0 14.5,7.46875 Z"
         style="opacity:1;fill:#6e94a6;fill-opacity:1;stroke:none;stroke-width:7.55905485;stroke-opacity:1"
         inkscape:connector-curvature="0" />
      <rect
         y="231.38332"
         x="0.26458335"
         height="4.2333331"
         width="4.2333331"
         id="rect4629"
         style="opacity:1;fill:#ffff00;fill-opacity:0;stroke:none;stroke-width:2;stroke-opacity:1" />
    </g>
    <g
       id="stopped"
       transform="matrix(0.03937008,0,0,0.03937008,5.6875001,-5.3551138)">
      <rect
         y="213.39162"
         x="-42.862503"
         height="35.983334"
         width="35.983334"
         id="rect4648"
         style="opacity:1;fill:#ff00ff;fill-opacity:0;stroke:none;stroke-width:10.46928406;stroke-opacity:1" />
    </g>
  </g>
</svg>
